# xmcd
#
# Track frame offsets:
#   150
#   19258
#   35683
#   52336
#   66325
#   83250
#   110882
#   126810
#   146686
#   157441
#   179136
#   195947
#   206621
#   227936
#   249644
#   273625
#
# Disc length: 3803 seconds
#
# Revision: 0
# Processed by: cddbd v1.5.2PL0 Copyright (c) Steve Scherf et al.
# Submitted via: GXTranscoder 2.0.1939
#
DISCID=fe0ed910
DTITLE=liferexall - smoke signals
DYEAR=1901
DGENRE=Hip Hop
TTITLE0=how many mcs
TTITLE1=subconcious carnival
TTITLE2=catch this buzz
TTITLE3=unraveling
TTITLE4=i am only
TTITLE5=dear anger
TTITLE6=figure 4
TTITLE7=combine the crew
TTITLE8=the city
TTITLE9=sauced up
TTITLE10=sucion
TTITLE11=import tuner drop
TTITLE12=everything dissapears
TTITLE13=alta vista social club
TTITLE14=live from moss beach
TTITLE15=quick reminder
EXTD=
EXTT0=
EXTT1=
EXTT2=
EXTT3=
EXTT4=
EXTT5=
EXTT6=
EXTT7=
EXTT8=
EXTT9=
EXTT10=
EXTT11=
EXTT12=
EXTT13=
EXTT14=
EXTT15=
PLAYORDER=
